<?xml version="1.0" encoding="iso-8859-1"?>
<!-- Generator: Adobe Illustrator 17.1.0, SVG Export Plug-In . SVG Version: 6.00 Build 0)  -->
<!DOCTYPE svg PUBLIC "-//W3C//DTD SVG 1.1//EN" "http://www.w3.org/Graphics/SVG/1.1/DTD/svg11.dtd">
<svg xmlns="http://www.w3.org/2000/svg" xmlns:xlink="http://www.w3.org/1999/xlink" version="1.1" id="Capa_1" x="0px" y="0px" viewBox="0 0 470.001 470.001" style="enable-background:new 0 0 470.001 470.001;" xml:space="preserve" width="512px" height="512px">
<g>
	<path d="M469.732,230.912c-9.981-36.267-32.691-67.515-65.675-90.367c-16.594-11.497-31.801-18.164-40.334-21.401   c0.817-3.725,1.238-7.542,1.238-11.418c0-29.346-23.874-53.221-53.22-53.221c-8.016,0-15.743,1.745-22.803,5.109   c-7.648-22.717-29.188-38.77-53.938-38.77c-24.75,0-46.29,16.053-53.937,38.77c-7.06-3.364-14.787-5.109-22.803-5.109   c-29.346,0-53.22,23.875-53.22,53.221c0,3.878,0.422,7.696,1.238,11.418c-8.533,3.238-23.74,9.904-40.334,21.401   c-32.984,22.853-55.694,54.101-65.675,90.367c-0.917,3.33,0.559,6.854,3.575,8.539c7.915,4.419,21.07,7.871,36.189,7.871   c5.938,0,12.18-0.533,18.523-1.749c15.043-2.883,34.721-10.428,51.184-29.323c2.693,32.089,5.405,64.927,6.868,84.157   c1.31,17.205,12.416,32.779,28.184,40.151c2.413,28.979,4.155,50.492,5.183,63.993c1.873,24.595,23.393,44.604,47.973,44.604   h74.104c24.58,0,46.1-20.01,47.973-44.604c1.032-13.556,2.774-35.071,5.183-63.993c15.769-7.372,26.875-22.947,28.184-40.151   c1.464-19.232,4.175-52.069,6.868-84.157c16.463,18.895,36.141,26.439,51.184,29.322c6.345,1.217,12.584,1.749,18.523,1.749   c15.117,0,28.275-3.453,36.189-7.871C469.173,237.766,470.648,234.242,469.732,230.912z M414.268,230.841   c-15.519-2.974-36.968-11.929-52.076-37.529c0.462-5.469,0.914-10.806,1.349-15.931c0.35-4.127-2.712-7.757-6.839-8.106   c-4.139-0.36-7.757,2.711-8.107,6.839c-0.491,5.786-1.004,11.848-1.529,18.06c-0.016,0.142-0.028,0.284-0.036,0.427   c-0.512,6.058-1.034,12.256-1.558,18.5l-58.887,10.434c-3.582,0.635-6.191,3.747-6.191,7.385v25.688c0,4.143,3.358,7.5,7.5,7.5   s7.5-3.357,7.5-7.5v-19.399l48.784-8.644c-2.299,27.538-4.482,54.146-5.742,70.705c-0.987,12.975-10.138,24.627-22.771,28.996   c-2.806,0.971-4.775,3.505-5.022,6.464c-2.609,31.277-4.484,54.387-5.573,68.685c-1.291,16.952-16.102,30.743-33.016,30.743   h-74.104c-16.914,0-31.725-13.791-33.016-30.743c-1.084-14.239-2.959-37.348-5.573-68.685c-0.247-2.959-2.216-5.493-5.022-6.464   c-12.632-4.369-21.783-16.021-22.771-28.996c-1.26-16.559-3.443-43.167-5.742-70.705l48.784,8.644v19.399   c0,4.143,3.358,7.5,7.5,7.5s7.5-3.357,7.5-7.5V230.92c0-3.638-2.61-6.75-6.191-7.385l-58.887-10.434   c-0.524-6.244-1.047-12.443-1.558-18.502c-0.008-0.141-0.02-0.281-0.036-0.421c-0.525-6.214-1.038-12.278-1.529-18.066   c-0.35-4.128-3.987-7.178-8.107-6.84c-4.127,0.351-7.189,3.98-6.839,8.107c0.435,5.125,0.887,10.463,1.349,15.933   c-15.108,25.6-36.557,34.556-52.076,37.53c-15.951,3.056-30.416,0.852-39.148-2.147c9.824-30.38,29.137-55.767,57.48-75.526   c15.404-10.739,29.712-16.999,37.472-19.96c2.061,3.778,4.576,7.298,7.53,10.515c2.802,3.051,7.546,3.253,10.597,0.45   c0.152-0.14,0.292-0.288,0.43-0.437c2.628-2.837,2.683-7.261,0.021-10.16c-3.327-3.622-5.886-7.771-7.614-12.348   c-1.632-4.29-2.46-8.833-2.46-13.503c0-21.075,17.146-38.221,38.22-38.221c8.471,0,16.49,2.713,23.189,7.845   c2.13,1.632,4.968,2.002,7.443,0.97c2.476-1.03,4.213-3.305,4.556-5.965c2.683-20.814,20.546-36.51,41.551-36.51   s38.868,15.695,41.552,36.51c0.343,2.66,2.08,4.935,4.556,5.965c2.477,1.031,5.313,0.662,7.443-0.97   c6.699-5.132,14.718-7.845,23.189-7.845c21.074,0,38.22,17.146,38.22,38.221c0,4.669-0.828,9.213-2.466,13.521   c-1.721,4.56-4.281,8.708-7.608,12.33c-2.662,2.899-2.607,7.323,0.021,10.16c0.138,0.149,0.278,0.297,0.43,0.437   c1.44,1.323,3.258,1.977,5.071,1.977c2.026,0,4.047-0.816,5.526-2.427c2.955-3.217,5.471-6.74,7.531-10.514   c7.759,2.961,22.067,9.22,37.471,19.96c28.343,19.76,47.656,45.146,57.48,75.526C444.685,231.693,430.218,233.897,414.268,230.841z   " fill="#FFFFFF"/>
	<path d="M258.247,329.202l-23.247,16.212l-23.247-16.212c-3.396-2.37-8.072-1.537-10.442,1.861   c-2.369,3.397-1.536,8.072,1.862,10.441l24.327,16.965v20.759h-12.576c-4.142,0-7.5,3.357-7.5,7.5s3.358,7.5,7.5,7.5h40.151   c4.142,0,7.5-3.357,7.5-7.5s-3.358-7.5-7.5-7.5h-12.576V358.47l24.327-16.965c3.398-2.369,4.231-7.044,1.862-10.441   C266.319,327.665,261.645,326.831,258.247,329.202z" fill="#FFFFFF"/>
	<path d="M317.782,145.48c-1.987,0.315-4.02,0.475-6.041,0.475c-5.475,0-10.777-1.147-15.76-3.409   c-3.177-1.44-6.932-0.502-9.054,2.269c-12.501,16.32-31.427,25.681-51.926,25.681s-39.425-9.36-51.926-25.681   c-2.123-2.771-5.877-3.71-9.054-2.269c-4.983,2.262-10.286,3.409-15.76,3.409c-2.021,0-4.054-0.159-6.042-0.475   c-3.882-0.612-7.535,1.87-8.451,5.622c-0.049,0.202-0.096,0.405-0.129,0.614c-0.648,4.091,2.144,7.933,6.235,8.581   c2.761,0.437,5.583,0.658,8.387,0.658c5.666,0,11.198-0.882,16.516-2.627c15.275,17.335,36.921,27.167,60.224,27.167   s44.949-9.832,60.224-27.167c5.317,1.745,10.851,2.627,16.516,2.627c2.804,0,5.626-0.222,8.387-0.658   c4.091-0.648,6.883-4.49,6.235-8.581c-0.033-0.209-0.08-0.412-0.129-0.614C325.317,147.35,321.664,144.866,317.782,145.48z" fill="#FFFFFF"/>
</g>
<g>
</g>
<g>
</g>
<g>
</g>
<g>
</g>
<g>
</g>
<g>
</g>
<g>
</g>
<g>
</g>
<g>
</g>
<g>
</g>
<g>
</g>
<g>
</g>
<g>
</g>
<g>
</g>
<g>
</g>
</svg>
